# xmcd
#
# Track frame offsets:
#	150
#	16176
#	37375
#	53404
#	67545
#
# Disc length: 1108 seconds
#
# Revision: 0
# Processed by: cddbd v1.5.2PL0 Copyright (c) Steve Scherf et al.
# Submitted via: audiograbber 1.83.01
#
DISCID=32045205
DTITLE=chyke david jones - hungry 4 your luv
DYEAR=2009
DGENRE=rhythm and blues
TTITLE0=hungry 4 your luv (radio edit)
TTITLE1=hungry 4 your luv (extended mix)
TTITLE2=money 2 make money
TTITLE3=money 2 make money (funky mix)
TTITLE4=money 2 make money (house mix)
EXTD=maxi single
EXTT0=
EXTT1=
EXTT2=
EXTT3=
EXTT4=
PLAYORDER=
